<?xml version="1.0" standalone="no"?>
<!DOCTYPE svg PUBLIC "-//W3C//DTD SVG 20010904//EN"
 "http://www.w3.org/TR/2001/REC-SVG-20010904/DTD/svg10.dtd">
<svg version="1.0" xmlns="http://www.w3.org/2000/svg"
 width="1890.000000pt" height="1417.000000pt" viewBox="0 0 1890.000000 1417.000000"
 preserveAspectRatio="xMidYMid meet">

<g transform="translate(0.000000,1417.000000) scale(0.100000,-0.100000)"
fill="#000000" stroke="none">
<path d="M11081 9310 c-423 -59 -783 -447 -892 -962 -28 -131 -31 -376 -6
-510 20 -108 75 -274 121 -367 91 -179 185 -299 436 -551 218 -220 330 -361
400 -505 131 -269 143 -570 32 -795 -49 -100 -151 -203 -247 -251 -68 -33 -72
-34 -200 -34 -115 0 -135 3 -171 22 -40 21 -104 85 -104 103 0 5 -13 38 -29
73 -33 72 -142 361 -193 510 -27 81 -36 97 -52 95 -10 -2 -27 -14 -36 -28 -17
-24 -16 -43 20 -435 21 -225 41 -418 45 -427 27 -66 398 -97 615 -51 312 67
552 247 695 523 65 126 91 202 121 348 23 109 27 152 27 302 0 146 -4 192 -22
274 -70 310 -220 561 -577 966 -332 378 -417 543 -431 840 -14 319 102 591
292 681 85 41 188 41 265 2 96 -49 111 -80 267 -538 81 -241 83 -245 98 -245
6 0 20 9 29 19 16 18 16 36 2 307 -9 159 -19 341 -22 404 -3 63 -10 127 -16
142 -25 66 -279 114 -467 88z"/>
<path d="M5395 9290 c-248 -14 -1191 -32 -1307 -25 l-118 7 0 -35 c0 -47 13
-58 105 -87 52 -16 82 -32 92 -47 13 -19 17 -96 24 -430 27 -1295 46 -3246 31
-3283 -7 -19 -31 -34 -92 -60 -83 -35 -100 -51 -100 -92 l0 -23 500 0 500 0 0
26 c0 15 -6 31 -12 37 -7 5 -65 26 -129 46 -65 20 -123 44 -130 53 -12 13 -14
118 -12 577 2 309 6 693 9 854 6 257 8 294 23 301 9 5 124 19 256 30 329 29
488 50 502 64 6 7 13 30 15 52 l3 40 -95 7 c-109 7 -582 37 -650 41 l-45 2 3
190 c8 599 35 1592 44 1608 8 16 18 17 81 12 249 -22 447 -54 475 -77 21 -18
33 -49 138 -358 53 -156 100 -276 107 -278 7 -1 20 5 29 15 14 16 15 57 6 408
-5 215 -13 400 -18 413 -11 25 -2 24 -235 12z"/>
<path d="M8740 9268 c-53 -15 -88 -45 -115 -98 -25 -50 -54 -192 -190 -935
-36 -198 -97 -531 -136 -740 -38 -209 -106 -576 -150 -815 -96 -521 -192
-1029 -220 -1160 -33 -158 -32 -156 -109 -195 -68 -34 -80 -48 -80 -88 l0 -22
340 0 340 0 0 25 c0 39 -9 46 -105 82 -121 45 -120 42 -95 305 49 523 93 909
105 929 12 18 30 23 132 33 169 16 395 31 490 31 l82 0 10 -52 c5 -29 58 -294
116 -589 58 -296 105 -550 105 -566 0 -45 -18 -59 -115 -88 -95 -28 -115 -43
-115 -84 l0 -26 462 2 c274 1 464 5 466 11 1 5 -2 21 -7 36 -8 19 -30 36 -78
59 -53 25 -72 40 -85 67 -9 19 -35 153 -57 300 -107 704 -137 898 -207 1368
-107 719 -216 1473 -268 1857 -25 181 -50 333 -56 339 -20 20 -398 32 -460 14z
m-62 -571 c6 -23 27 -146 47 -272 58 -370 261 -1572 280 -1662 5 -22 2 -23
-57 -23 -68 0 -350 25 -493 43 l-90 12 -3 38 c-2 21 6 95 17 165 11 70 72 465
136 877 125 814 134 865 145 865 4 0 12 -19 18 -43z"/>
<path d="M5870 9236 c0 -41 17 -60 67 -77 82 -26 112 -47 122 -87 13 -51 21
-795 24 -2370 2 -1299 2 -1334 -17 -1347 -10 -8 -54 -26 -96 -40 -75 -25 -78
-27 -85 -62 -3 -19 -5 -36 -3 -37 2 -1 104 0 228 3 124 3 486 3 805 0 319 -3
586 -4 593 -1 17 6 15 -5 80 450 58 399 58 403 40 433 -10 17 -23 27 -29 23
-10 -6 -76 -138 -148 -297 -11 -23 -50 -107 -88 -187 -99 -208 -113 -217 -390
-265 -202 -35 -324 -42 -345 -21 -15 14 -16 48 -12 313 3 164 9 586 14 938 11
715 46 2110 59 2338 7 126 11 151 27 167 11 9 60 30 111 45 95 29 103 35 103
93 l0 22 -530 0 -530 0 0 -34z"/>
<path d="M11914 9256 c-3 -7 -1 -28 3 -47 8 -30 15 -35 95 -61 79 -27 88 -32
97 -61 18 -57 54 -3622 38 -3689 -5 -20 -26 -35 -94 -67 -94 -46 -103 -53
-103 -91 l0 -25 456 2 c251 1 458 4 461 6 2 2 -1 16 -6 31 -8 19 -33 37 -96
68 -73 37 -86 47 -96 77 -12 35 -6 1275 7 1609 6 142 8 154 28 167 21 14 383
56 612 71 l101 6 6 -92 c4 -51 7 -468 7 -927 0 -781 -1 -834 -17 -849 -10 -9
-54 -37 -98 -63 -69 -40 -80 -50 -83 -76 l-3 -30 461 0 460 0 0 33 c0 32 -3
35 -96 79 -72 34 -98 52 -106 72 -21 52 15 1937 57 3066 19 503 28 629 43 648
7 8 40 25 75 37 34 12 65 25 69 29 4 3 10 25 14 49 l7 42 -497 0 -496 0 0 -40
c0 -47 15 -59 104 -86 37 -12 64 -27 74 -42 13 -20 16 -130 23 -815 4 -436 5
-821 2 -856 l-6 -64 -235 7 c-130 4 -252 9 -271 11 -20 2 -71 7 -114 10 -47 4
-83 12 -92 22 -19 18 -19 159 -5 771 13 551 28 889 40 912 5 10 43 30 84 45
77 28 86 37 86 98 l0 27 -495 0 c-412 0 -497 -2 -501 -14z"/>
<path d="M3975 5025 c-44 -8 -86 -14 -92 -14 -27 -2 -11 -20 20 -23 l32 -3 6
-210 c9 -310 10 -608 1 -621 -4 -6 -17 -14 -29 -18 -50 -16 -18 -24 92 -24
117 0 140 7 84 27 l-32 11 7 84 c16 211 78 376 142 376 19 0 29 -9 42 -37 13
-31 16 -74 17 -233 l0 -194 -32 -10 c-61 -17 -34 -25 87 -25 113 1 152 11 95
25 -14 3 -25 14 -25 23 -1 9 0 108 0 221 1 219 -9 279 -51 330 -16 18 -31 25
-60 25 -70 0 -132 -82 -190 -250 l-27 -80 4 130 c13 447 14 505 1 504 -6 -1
-48 -7 -92 -14z"/>
<path d="M15575 5025 c-44 -8 -86 -14 -92 -14 -27 -2 -11 -20 20 -23 l32 -3 6
-210 c9 -310 10 -608 1 -621 -4 -6 -17 -14 -29 -18 -50 -16 -18 -24 92 -24
117 0 140 7 84 27 l-32 11 7 84 c16 211 78 376 142 376 19 0 29 -9 42 -37 13
-31 16 -74 17 -233 l0 -194 -32 -10 c-61 -17 -34 -25 87 -25 113 1 152 11 95
25 -14 3 -25 14 -25 23 -1 9 0 108 0 221 1 219 -9 279 -51 330 -16 18 -31 25
-60 25 -70 0 -132 -82 -190 -250 l-27 -80 4 130 c13 447 14 505 1 504 -6 -1
-48 -7 -92 -14z"/>
<path d="M7065 4897 c-52 -33 -55 -40 -70 -139 -6 -36 -8 -38 -44 -38 -26 0
-41 -5 -45 -16 -11 -29 -6 -34 40 -34 44 0 45 -1 40 -27 -12 -65 -17 -322 -7
-383 16 -99 64 -149 149 -158 39 -3 62 1 106 21 31 14 56 31 56 38 0 7 -7 8
-17 4 -76 -30 -130 -7 -152 66 -13 44 -18 420 -6 440 4 5 21 9 39 9 54 0 126
12 126 21 0 4 -37 9 -82 11 l-83 3 3 70 c1 39 5 87 8 108 3 20 2 37 -3 37 -4
0 -31 -15 -58 -33z"/>
<path d="M2472 4718 c-55 -12 -91 -25 -89 -32 2 -6 14 -11 28 -11 23 0 24 -3
30 -90 4 -49 7 -226 8 -391 l1 -302 -25 -6 c-14 -4 -25 -11 -25 -16 0 -6 48
-10 120 -10 121 0 152 10 83 27 -34 8 -38 12 -37 38 0 17 1 74 2 128 l2 98 29
-20 c76 -54 179 -27 238 63 48 73 66 163 61 303 -3 101 -7 125 -28 168 -43 87
-113 97 -184 27 -22 -20 -51 -64 -66 -97 -15 -33 -32 -71 -38 -85 -9 -19 -10
3 -6 103 4 70 2 127 -2 126 -5 0 -51 -10 -102 -21z m250 -90 c33 -28 43 -80
43 -228 0 -150 -11 -210 -43 -250 -42 -52 -118 -8 -143 82 -24 91 17 297 76
373 28 38 42 42 67 23z"/>
<path d="M5632 4730 c-79 -19 -142 -89 -174 -193 -28 -94 -23 -250 11 -316 38
-73 78 -105 149 -116 103 -17 206 44 259 153 26 53 28 65 28 182 0 106 -3 132
-21 170 -48 103 -139 147 -252 120z m93 -47 c32 -48 47 -159 42 -308 -2 -77
-10 -156 -17 -175 -42 -117 -122 -92 -154 47 -28 126 -18 338 20 419 27 57 78
65 109 17z"/>
<path d="M8465 4736 c-5 -3 -22 -7 -38 -10 -36 -8 -102 -68 -132 -120 -68
-120 -57 -363 22 -444 41 -43 74 -56 142 -56 166 -1 261 124 261 344 -1 177
-71 278 -200 286 -25 2 -49 2 -55 0z m70 -53 c32 -48 47 -159 42 -308 -5 -155
-18 -208 -60 -239 -27 -20 -27 -20 -54 0 -43 32 -65 109 -71 246 -5 123 8 229
35 286 26 55 78 62 108 15z"/>
<path d="M9910 4731 c-109 -34 -162 -110 -161 -230 0 -82 34 -144 93 -171 l41
-18 -61 -31 c-54 -27 -62 -35 -62 -60 0 -32 20 -53 70 -73 l34 -14 -62 -43
c-80 -54 -98 -81 -86 -128 25 -97 192 -140 358 -91 56 17 132 94 142 142 8 45
0 102 -18 124 -22 27 -93 52 -204 72 -59 10 -112 24 -118 30 -21 21 11 45 103
76 144 49 191 107 191 236 0 55 -5 81 -20 105 l-20 33 39 6 c39 6 69 20 61 27
-10 8 -296 15 -320 8z m81 -21 c4 0 16 -15 26 -32 14 -26 18 -57 18 -155 0
-107 -2 -125 -20 -149 -45 -60 -92 -47 -119 33 -18 51 -21 165 -6 228 10 44
54 90 77 81 8 -3 19 -6 24 -6z m15 -619 c22 -10 51 -29 62 -42 40 -42 20 -133
-35 -158 -35 -16 -105 -13 -131 5 -50 35 -69 133 -36 196 15 28 18 30 57 24
23 -4 60 -15 83 -25z"/>
<path d="M11273 4718 c-51 -11 -93 -24 -93 -28 0 -4 13 -10 29 -13 l28 -6 6
-123 c4 -68 7 -187 7 -265 l1 -141 -31 -7 c-67 -15 -24 -25 105 -25 135 0 176
12 89 25 l-47 7 6 96 c12 212 75 402 133 402 9 0 27 -26 44 -62 l29 -63 0 101
c1 65 -3 104 -11 112 -22 22 -51 12 -92 -31 -42 -44 -66 -101 -93 -222 -12
-56 -12 -49 -8 103 3 89 2 162 -2 161 -5 0 -50 -10 -100 -21z"/>
<path d="M12750 4731 c-50 -16 -87 -40 -123 -80 -51 -56 -48 -82 3 -31 63 63
130 69 162 13 18 -31 42 -142 33 -152 -3 -2 -17 6 -31 20 -20 18 -37 24 -72
24 -109 0 -176 -92 -177 -241 0 -71 3 -85 27 -121 31 -48 74 -68 123 -59 43 8
99 56 125 105 l19 36 1 -67 0 -68 88 0 c79 1 85 2 68 15 -11 8 -26 15 -34 15
-12 0 -14 27 -8 178 10 245 -9 349 -71 396 -28 21 -95 30 -133 17z m33 -251
c34 -27 61 -110 53 -163 -9 -55 -43 -125 -68 -138 -34 -18 -65 -3 -79 38 -27
77 -11 229 28 268 20 20 35 19 66 -5z"/>
<path d="M14120 4730 c-19 -4 -61 -13 -92 -20 -62 -12 -75 -27 -30 -32 27 -3
27 -4 33 -93 4 -49 7 -226 8 -391 l1 -302 -25 -6 c-57 -14 -17 -24 100 -25
122 -1 157 10 81 25 -20 3 -36 13 -38 22 -2 10 -2 68 0 129 l4 113 28 -20 c45
-32 102 -36 155 -10 83 40 132 137 145 290 19 232 -56 374 -168 316 -60 -31
-84 -65 -150 -216 -9 -19 -10 5 -6 103 3 70 2 127 -3 126 -4 -1 -24 -5 -43 -9z
m186 -98 c63 -41 74 -355 18 -465 -22 -41 -61 -53 -93 -29 -52 38 -66 78 -66
182 1 108 33 225 80 285 26 35 40 41 61 27z"/>
<path d="M16980 4720 c0 -5 9 -14 20 -20 11 -6 20 -17 20 -24 0 -17 60 -236
121 -439 29 -99 47 -176 44 -188 -10 -29 -63 -88 -96 -104 -37 -20 -53 -12
-74 36 -21 45 -39 52 -31 12 3 -16 8 -52 12 -81 7 -58 18 -68 62 -57 102 25
228 282 352 715 20 72 40 120 51 129 34 24 20 31 -66 31 -83 0 -112 -13 -60
-26 20 -5 25 -12 25 -38 0 -44 -77 -417 -88 -428 -5 -5 -26 77 -51 204 -23
117 -44 221 -47 230 -4 12 3 22 20 30 14 6 26 15 26 20 0 4 -54 8 -120 8 -70
0 -120 -4 -120 -10z"/>
</g>
</svg>
